<svg xmlns="http://www.w3.org/2000/svg" xmlns:svg="http://www.w3.org/2000/svg" style="fill:#000" id="svg2" version="1.1" viewBox="0 0 26 26"><metadata id="metadata10"/><path style="color:#000;line-height:normal;font-family:'Bitstream Vera Sans';-inkscape-font-specification:'Bitstream Vera Sans';text-indent:0;text-align:start;text-transform:none;block-progression:tb;overflow:visible;enable-background:accumulate" id="path4142" d="M 3.9179688 4.859375 A 0.62287198 1.3746889 0 0 0 3.5058594 5.2617188 L 0.44726562 12.029297 L 0.001953125 12.992188 L 0.44726562 13.955078 L 3.5058594 20.726562 A 0.61948247 1.3672081 0 0 0 4.0078125 21.134766 A 0.61948247 1.3672081 0 0 0 4.375 18.78125 L 2.3730469 14.363281 L 4.4492188 14.363281 A 8.6632847 8.6632847 0 0 1 4.3359375 13 A 8.6632847 8.6632847 0 0 1 4.4570312 11.626953 L 2.3730469 11.626953 L 4.3867188 7.2070312 A 0.62287198 1.3746889 0 0 0 3.9179688 4.859375 z"/><path style="color:#000;line-height:normal;font-family:'Bitstream Vera Sans';-inkscape-font-specification:'Bitstream Vera Sans';text-indent:0;text-align:start;text-transform:none;block-progression:tb;overflow:visible;fill:#000;enable-background:accumulate" id="path4142-7" d="M 22.150391 4.859375 A 0.61078884 1.3746889 0 0 0 21.693359 7.2070312 L 23.669922 11.626953 L 21.548828 11.626953 A 8.6632847 8.6632847 0 0 1 21.664062 13 A 8.6632847 8.6632847 0 0 1 21.544922 14.363281 L 23.669922 14.363281 L 21.705078 18.78125 A 0.60746509 1.3672081 0 0 0 22.064453 21.134766 A 0.60746509 1.3672081 0 0 0 22.558594 20.726562 L 25.556641 13.955078 L 25.994141 12.992188 L 25.556641 12.029297 L 22.558594 5.2617188 A 0.61078884 1.3746889 0 0 0 22.154297 4.859375 A 0.61078884 1.3746889 0 0 0 22.150391 4.859375 z"/><path style="fill:none;fill-opacity:1;stroke:none;stroke-opacity:1" id="path4178" d="M 24.305298,12.990434 A 13.009566,12.931664 0 0 1 11.295732,25.922098 13.009566,12.931664 0 0 1 -1.7138348,12.990434 13.009566,12.931664 0 0 1 11.295732,0.05876923 13.009566,12.931664 0 0 1 24.305298,12.990434 Z"/><g id="g4140" transform="translate(55.14476,-15.492852)" style="fill:none"><path id="path4182" d="m -33.481475,28.492853 a 8.6632847,8.6632847 0 0 1 -8.663285,8.663285 8.6632847,8.6632847 0 0 1 -8.663285,-8.663285 8.6632847,8.6632847 0 0 1 8.663285,-8.663286 8.6632847,8.6632847 0 0 1 8.663285,8.663286 z" style="fill:none;fill-opacity:1;stroke:#000;stroke-width:.97919041;stroke-miterlimit:4;stroke-dasharray:none;stroke-opacity:1"/></g><path id="path5311" d="m 12.529695,6.8860467 0,0.9406102 0.470304,0 0,-0.9406101 -0.470304,0 z m -1.014094,0.2057575 -0.396816,0.1028795 -0.01468,0.014706 -0.01472,0 -0.396819,0.1469703 -0.01472,0 -0.01472,0.014706 -0.0441,0.014706 0.39682,0.8524252 0.01472,0 0.02939,-0.014706 0.323336,-0.1175693 0.02939,-0.014689 0.367426,-0.1028804 -0.264548,-0.8965177 z m 3.365615,0.2645487 0,0.4703039 0,3.2921282 0.94061,0 0,-2.454401 c 1.424767,0.9312842 2.351519,2.482883 2.351519,4.335616 0,2.847477 -2.325867,5.173345 -5.173346,5.173345 -2.847477,0 -5.173344,-2.325868 -5.173344,-5.173345 l 0,-0.470305 -0.9406085,0 0,0.470305 c 0,3.360536 2.7534164,6.113953 6.1139525,6.113953 3.360538,0 6.113954,-2.753417 6.113954,-6.113953 0,-1.908956 -0.844267,-3.5811314 -2.189854,-4.7030393 l 1.719551,0 0,-0.9406077 -3.292128,0 -0.470306,0 z m -5.0998598,0.4703039 -0.24985,0.1616651 -0.014682,0.014706 -0.014706,0 -0.3233343,0.2498498 -0.014682,0.014689 -0.014715,0 -0.1322738,0.1175707 0.6172742,0.7054558 0.1028796,-0.088172 0.029396,-0.014706 0.2645451,-0.2057598 0.0294,-0.014706 L 10.28106,8.6202801 9.7813644,7.826642 Z M 8.3410495,9.046507 8.2381699,9.1787808 l -0.014706,0.014706 -0.014706,0.014706 -0.2498499,0.3233333 0,0.01471 -0.014706,0.01471 -0.1616668,0.24985 0.7936381,0.5143957 0.1322732,-0.220456 0.029396,-0.02939 0.2057576,-0.2792447 0.014715,-0.01471 L 9.0611946,9.6638233 8.34104,9.0465473 Z m -0.9993973,1.601972 -0.014706,0.0588 -0.014706,0.01471 0,0.01472 -0.1469695,0.382123 0,0.01468 -0.014706,0.02939 -0.1028804,0.396819 0.8965177,0.249849 0.1028795,-0.367425 0.014706,-0.02939 0.1175686,-0.323333 0.014706,-0.02939 0,-0.01472 -0.852426,-0.39682 z" style="line-height:normal;-inkscape-font-specification:'Bitstream Vera Sans';text-indent:0;text-align:start;text-transform:none;block-progression:tb;fill:#000"/></svg>