<svg xmlns="http://www.w3.org/2000/svg" xmlns:svg="http://www.w3.org/2000/svg" id="????????_1" width="48" height="48" x="0" y="0" contentScriptType="application/ecmascript" contentStyleType="text/css" enable-background="new 0 0 48 48" preserveAspectRatio="xMidYMid meet" version="1.1" viewBox="0 0 48 48" zoomAndPan="magnify" xml:space="preserve" style="fill:#000"><metadata id="metadata13"/><g id="g3"><path id="path5" fill="none" stroke="#7CB342" stroke-width="4" d="M38.912,29.998C36.487,36.427,30.277,41,23,41c-9.389,0-17-7.611-17-17 S13.611,7,23,7c7.277,0,13.487,4.573,15.912,11.002"/><polygon id="polygon7" fill="#7CB342" points="43 12 40.414 20.621 31.793 18.035"/></g><path style="font-style:normal;font-weight:400;font-size:26.36943245px;line-height:125%;font-family:sans-serif;letter-spacing:0;word-spacing:0;fill:#7cb342;fill-opacity:1;stroke:none;stroke-width:1px;stroke-linecap:butt;stroke-linejoin:miter;stroke-opacity:1" id="text4141" d="M 20.919922 14.326172 L 13.384766 32.746094 L 17.527344 32.746094 L 19.125 28.5625 L 26.857422 28.5625 L 28.544922 32.746094 L 32.794922 32.746094 L 25.048828 14.326172 L 20.919922 14.326172 z M 22.9375 18.623047 L 25.603516 25.457031 L 20.326172 25.457031 L 22.9375 18.623047 z"/></svg>