<svg xmlns="http://www.w3.org/2000/svg" xmlns:xlink="http://www.w3.org/1999/xlink" id="????????_1" width="48" height="48" x="0" y="0" contentScriptType="application/ecmascript" contentStyleType="text/css" enable-background="new 0 0 48 48" preserveAspectRatio="xMidYMid meet" version="1.1" viewBox="0 0 48 48" zoomAndPan="magnify" xml:space="preserve" style="fill:#000"><path fill="#3F51B5" d="M6,34v7c0,0.553,0.448,1,1,1h34c0.553,0,1-0.447,1-1v-7H6z"/><rect width="36" height="28" x="6" y="6" fill="#BBDEFB"/><circle cx="10" cy="38" r="2" fill="#FFEB3B"/><circle cx="16" cy="38" r="2" fill="#8BC34A"/><path fill="#FAFAFA" d="M40,38c0,0.553-0.447,1-1,1H22c-0.552,0-1-0.447-1-1l0,0c0-0.553,0.448-1,1-1h17C39.553,37,40,37.447,40,38 L40,38z"/></svg>