<svg xmlns="http://www.w3.org/2000/svg" xmlns:xlink="http://www.w3.org/1999/xlink" id="????????_1" width="48" height="48" x="0" y="0" contentScriptType="application/ecmascript" contentStyleType="text/css" enable-background="new 0 0 48 48" preserveAspectRatio="xMidYMid meet" version="1.1" viewBox="0 0 48 48" zoomAndPan="magnify" xml:space="preserve" style="fill:#000"><g><polygon fill="#1E88E5" points="42 13.976 31.377 7.255 24 13.314 35.026 19.732"/><polygon fill="#1E88E5" points="6 25.647 16.933 32.055 24 26.633 13.528 19.969"/><polygon fill="#1E88E5" points="16.933 7.255 6 14.301 13.528 19.969 24 13.314"/><polygon fill="#1E88E5" points="24 26.633 31.209 32.055 42 25.647 35.026 19.732"/><polygon fill="#1E88E5" points="32.195 33.779 31.047 34.462 29.979 33.658 24 29.162 18.155 33.646 17.091 34.464 15.933 33.785 13 32.066 13 34.738 23.988 42 35 34.794 35 32.114"/></g></svg>