<svg xmlns="http://www.w3.org/2000/svg" xmlns:xlink="http://www.w3.org/1999/xlink" id="Layer_1" x="0" y="0" enable-background="new 0 0 48 48" version="1.1" viewBox="0 0 48 48" xml:space="preserve" style="fill:#000"><g><path fill="#009688" d="M18,32c-1.1,0-2-0.9-2-2l0-10l-4,0l0,10c0,3.3,2.7,6,6,6h19v-4H18z"/><path fill="#009688" d="M12.8,10l-0.4-1.3C11.8,7.1,10.3,6,8.6,6H5v4h3.6l5.5,16.6c0.3,0.8,1,1.4,1.9,1.4h19c0.8,0,1.5-0.5,1.8-1.2 L44.4,10H12.8z"/></g><circle cx="5" cy="8" r="2" fill="#00695C"/><g><circle cx="34" cy="39" r="3" fill="#37474F"/><circle cx="19" cy="39" r="3" fill="#37474F"/></g><g><circle cx="34" cy="39" r="1" fill="#607D8B"/><circle cx="19" cy="39" r="1" fill="#607D8B"/></g></svg>