<svg xmlns="http://www.w3.org/2000/svg" xmlns:xlink="http://www.w3.org/1999/xlink" id="????????_1" width="48" height="48" x="0" y="0" contentScriptType="application/ecmascript" contentStyleType="text/css" enable-background="new 0 0 48 48" preserveAspectRatio="xMidYMid meet" version="1.1" viewBox="0 0 48 48" zoomAndPan="magnify" xml:space="preserve" style="fill:#000"><path fill="#3F51B5" d="M38,13c0,0.553-0.447,1-1,1H5c-0.552,0-1-0.447-1-1V6c0-0.553,0.448-1,1-1h32c0.553,0,1,0.447,1,1V13z"/><rect width="34" height="29" x="4" y="10" fill="#BBDEFB"/><path fill="#E57373" d="M43.678,25.142l-2.82-2.819c-0.429-0.43-1.126-0.43-1.555,0l-1.328,1.328l4.376,4.375l1.327-1.328 C44.107,26.268,44.107,25.572,43.678,25.142"/><rect width="17.416" height="6.188" x="23.109" y="31.089" fill="#FF9800" transform="matrix(0.7071 -0.7071 0.7071 0.7071 -14.8517 32.5111)"/><rect width="3.094" height="6.189" x="37.521" y="23.837" fill="#B0BEC5" transform="matrix(-0.7069 0.7073 -0.7073 -0.7069 85.7351 18.3384)"/><polygon fill="#FFC107" points="23.473 38.152 22 44 27.848 42.528"/><polygon fill="#37474F" points="22.744 41.044 22 44 24.956 43.256"/><g><polygon fill="#1976D2" points="27.796 31 15 31 15 33 25.797 33"/><polygon fill="#1976D2" points="31 27.796 31 27 15 27 15 29 29.796 29"/><rect width="16" height="2" x="15" y="19" fill="#1976D2"/><rect width="16" height="2" x="15" y="15" fill="#1976D2"/><rect width="2" height="2" x="11" y="15" fill="#1976D2"/><rect width="2" height="2" x="11" y="19" fill="#1976D2"/><rect width="2" height="2" x="11" y="31" fill="#1976D2"/><path fill="#1976D2" d="M15,31v2h7c0-0.684,0.071-1.351,0.191-2H15z"/><rect width="2" height="2" x="11" y="23" fill="#1976D2"/><rect width="2" height="2" x="11" y="27" fill="#1976D2"/><rect width="16" height="2" x="15" y="23" fill="#1976D2"/></g></svg>