<svg xmlns="http://www.w3.org/2000/svg" xmlns:svg="http://www.w3.org/2000/svg" id="????????_1" width="36" height="36" x="0" y="0" contentScriptType="application/ecmascript" contentStyleType="text/css" enable-background="new 0 0 48 48" preserveAspectRatio="xMidYMid meet" version="1.1" viewBox="0 0 36 36" zoomAndPan="magnify" xml:space="preserve" style="fill:#000;fill-opacity:.68627451"><metadata id="metadata17"/><path id="path3" d="M 31,0 5,0 C 2.238,0 0,2.238 0,5 l 0,26 c 0,2.762 2.238,5 5,5 l 26,0 c 2.762,0 5,-2.238 5,-5 L 36,5 C 36,2.238 33.762,0 31,0 Z" style="fill:#8bc34a"/><rect id="rect5" width="26" height="26" x="5" y="5" style="fill:#f1f8e9"/><g id="g7" transform="translate(-6,-6)"><rect id="rect9" width="4" height="12" x="17.011" y="20.265" transform="matrix(0.7072,-0.707,0.707,0.7072,-13.0036,21.1329)" style="fill:#558b2f"/><rect id="rect11" width="18" height="4.222" x="17.789" y="22.032" transform="matrix(0.7071,-0.7071,0.7071,0.7071,-9.2258,26.0135)" style="fill:#558b2f"/></g></svg>