<svg xmlns="http://www.w3.org/2000/svg" xmlns:xlink="http://www.w3.org/1999/xlink" id="????????_1" width="48" height="48" x="0" y="0" contentScriptType="application/ecmascript" contentStyleType="text/css" enable-background="new 0 0 48 48" preserveAspectRatio="xMidYMid meet" version="1.1" viewBox="0 0 48 48" zoomAndPan="magnify" xml:space="preserve" style="fill:#000"><path fill="#455A64" d="M36,6H26c0,1.104-0.896,2-2,2s-2-0.896-2-2H12c-2.209,0-4,1.791-4,4v32c0,2.209,1.791,4,4,4h24 c2.209,0,4-1.791,4-4V10C40,7.791,38.209,6,36,6"/><path fill="#FFF" d="M36,43H12c-0.552,0-1-0.448-1-1V10c0-0.552,0.448-1,1-1h24c0.552,0,1,0.448,1,1v32 C37,42.552,36.552,43,36,43"/><g><path fill="#90A4AE" d="M26,6c0,1.105-0.895,2-2,2s-2-0.895-2-2h-7v4c0,1.105,0.895,2,2,2h14c1.105,0,2-0.895,2-2V6H26z"/><path fill="#90A4AE" d="M24,2c-2.206,0-4,1.794-4,4s1.794,4,4,4s4-1.794,4-4S26.206,2,24,2 M24,8c-1.104,0-2-0.896-2-2s0.896-2,2-2 s2,0.896,2,2S25.104,8,24,8"/></g><g><rect width="16" height="3" x="15" y="17" fill="#03A9F4"/><rect width="16" height="2" x="15" y="24" fill="#03A9F4"/><rect width="12" height="2" x="15" y="28" fill="#03A9F4"/><rect width="16" height="2" x="15" y="32" fill="#03A9F4"/><rect width="12" height="2" x="15" y="36" fill="#03A9F4"/></g></svg>