<svg xmlns="http://www.w3.org/2000/svg" xmlns:xlink="http://www.w3.org/1999/xlink" id="????????_1" width="48" height="48" x="0" y="0" contentScriptType="application/ecmascript" contentStyleType="text/css" enable-background="new 0 0 48 48" preserveAspectRatio="xMidYMid meet" version="1.1" viewBox="0 0 48 48" zoomAndPan="magnify" xml:space="preserve" style="fill:#000"><polygon fill="#42A5F5" points="31 36 6 36 6 3 23 3 31 11"/><polygon fill="#E1F5FE" points="29.5 12 22 12 22 4.5"/><g><rect width="16" height="2" x="11" y="16" fill="#1565C0"/><rect width="12" height="2" x="11" y="20" fill="#1565C0"/><rect width="16" height="2" x="11" y="24" fill="#1565C0"/><rect width="12" height="2" x="11" y="28" fill="#1565C0"/></g><polygon fill="#90CAF9" points="42 44 17 44 17 11 34 11 42 19"/><polygon fill="#E1F5FE" points="40.5 20 33 20 33 12.5"/><g><rect width="15" height="2" x="22" y="24" fill="#1976D2"/><rect width="11" height="2" x="22" y="28" fill="#1976D2"/><rect width="15" height="2" x="22" y="32" fill="#1976D2"/><rect width="11" height="2" x="22" y="36" fill="#1976D2"/></g></svg>