<svg xmlns="http://www.w3.org/2000/svg" xmlns:xlink="http://www.w3.org/1999/xlink" id="Layer_1" x="0" y="0" enable-background="new 0 0 48 48" version="1.1" viewBox="0 0 48 48" xml:space="preserve" style="fill:#000"><g><path fill="#FFA000" d="M40,12H22l-4-4H8c-2.2,0-4,1.8-4,4v8h40v-4C44,13.8,42.2,12,40,12z"/></g><g><path fill="#FFCA28" d="M40,12H8c-2.2,0-4,1.8-4,4v20c0,2.2,1.8,4,4,4h32c2.2,0,4-1.8,4-4V16C44,13.8,42.2,12,40,12z"/></g><g><polygon fill="#1565C0" points="24 32.6 18.5 26 29.5 26"/><rect width="4" height="2" x="22" y="16" fill="#1565C0"/><rect width="4" height="2" x="22" y="19" fill="#1565C0"/><rect width="4" height="5.5" x="22" y="22" fill="#1565C0"/><rect width="18" height="2" x="15" y="34" fill="#1565C0"/></g></svg>