<svg xmlns="http://www.w3.org/2000/svg" xmlns:svg="http://www.w3.org/2000/svg" id="????????_1" width="48" height="48" x="0" y="0" contentScriptType="application/ecmascript" contentStyleType="text/css" enable-background="new 0 0 48 48" preserveAspectRatio="xMidYMid meet" version="1.1" viewBox="0 0 48 48" zoomAndPan="magnify" xml:space="preserve" style="fill:#000"><metadata id="metadata23"/><path id="path3" d="M 48,24 C 48,37.2552 37.2552,48 24,48 10.7448,48 0,37.2552 0,24 0,10.7448 10.7448,0 24,0 37.2552,0 48,10.7448 48,24" style="fill:#7cb342"/><path id="path5" d="M 43.2,24 C 43.2,34.6044 34.6044,43.2 24,43.2 13.3956,43.2 4.8,34.6044 4.8,24 4.8,13.3956 13.3956,4.8 24,4.8 34.6044,4.8 43.2,13.3956 43.2,24" style="fill:#fff"/><path id="path7" d="M 24,22.6596 24,0 C 15.0348,0 7.2396,4.9284 3.1212,12.2124 L 24,22.6596 Z" style="fill:#dcedc8"/><g id="g9" transform="matrix(1.2,0,0,1.2,-4.8,-4.8)"><polygon id="polygon11" points="14.167 17.918 13.271 19.704 23.552 24.894 24.448 23.106"/><polygon id="polygon13" points="31.834 22.668 31.098 20.449 23.632 22.891 24.369 25.108"/><path id="path15" d="m 24.896,22.212 c 0.988,0.495 1.387,1.696 0.892,2.685 -0.495,0.987 -1.696,1.387 -2.684,0.892 -0.988,-0.495 -1.387,-1.696 -0.892,-2.685 0.496,-0.989 1.696,-1.388 2.684,-0.892"/></g><path id="path17" d="m 24.5376,22.9272 c 0.5916,0.2952 0.8304,1.0176 0.5352,1.6104 -0.2976,0.5904 -1.0188,0.8304 -1.6104,0.534 -0.5928,-0.2964 -0.8316,-1.0188 -0.5352,-1.6104 0.2976,-0.5904 1.0188,-0.8316 1.6104,-0.534" style="fill:#8bc34a"/></svg>