<svg xmlns="http://www.w3.org/2000/svg" xmlns:svg="http://www.w3.org/2000/svg" id="????????_1" width="48" height="48" x="0" y="0" contentScriptType="application/ecmascript" contentStyleType="text/css" enable-background="new 0 0 48 48" preserveAspectRatio="xMidYMid meet" version="1.1" viewBox="0 0 48 48" zoomAndPan="magnify" xml:space="preserve" style="fill:#000"><metadata id="metadata15"/><g id="g3"><rect id="rect5" width="10" height="7" x="10" y="10" fill="#1565C0"/><rect id="rect7" width="10" height="7" x="28" y="10" fill="#1565C0"/></g><rect id="rect9" width="36" height="22" x="6" y="16" fill="#2196F3"/><g id="g4165" transform="matrix(0.54049786,0,0,0.54049786,21.312598,21.108098)"><path id="path4155" d="m 39.6,27.2 c 0.1,-0.7 0.2,-1.4 0.2,-2.2 0,-0.8 -0.1,-1.5 -0.2,-2.2 l 4.5,-3.2 c 0.4,-0.3 0.6,-0.9 0.3,-1.4 L 40,10.8 c -0.3,-0.5 -0.8,-0.7 -1.3,-0.4 l -5,2.3 C 32.5,11.8 31.3,11.1 29.9,10.5 L 29.4,5 C 29.3,4.5 28.9,4.1 28.4,4.1 l -8.6,0 c -0.5,0 -1,0.4 -1,0.9 l -0.5,5.5 c -1.4,0.6 -2.7,1.3 -3.8,2.2 l -5,-2.3 C 9,10.2 8.4,10.4 8.2,10.8 l -4.3,7.4 c -0.3,0.5 -0.1,1.1 0.3,1.4 l 4.5,3.2 c -0.1,0.7 -0.2,1.4 -0.2,2.2 0,0.8 0.1,1.5 0.2,2.2 L 4,30.4 C 3.6,30.7 3.4,31.3 3.7,31.8 L 8,39.2 c 0.3,0.5 0.8,0.7 1.3,0.4 l 5,-2.3 c 1.2,0.9 2.4,1.6 3.8,2.2 l 0.5,5.5 c 0.1,0.5 0.5,0.9 1,0.9 l 8.6,0 c 0.5,0 1,-0.4 1,-0.9 l 0.5,-5.5 c 1.4,-0.6 2.7,-1.3 3.8,-2.2 l 5,2.3 c 0.5,0.2 1.1,0 1.3,-0.4 l 4.3,-7.4 c 0.3,-0.5 0.1,-1.1 -0.3,-1.4 L 39.6,27.2 Z M 24,35 c -5.5,0 -10,-4.5 -10,-10 0,-5.5 4.5,-10 10,-10 5.5,0 10,4.5 10,10 0,5.5 -4.5,10 -10,10 z" style="fill:#607d8b"/><path id="path4157" d="m 24,13 c -6.6,0 -12,5.4 -12,12 0,6.6 5.4,12 12,12 6.6,0 12,-5.4 12,-12 0,-6.6 -5.4,-12 -12,-12 z m 0,17 c -2.8,0 -5,-2.2 -5,-5 0,-2.8 2.2,-5 5,-5 2.8,0 5,2.2 5,5 0,2.8 -2.2,5 -5,5 z" style="fill:#455a64"/></g></svg>