<svg xmlns="http://www.w3.org/2000/svg" xmlns:xlink="http://www.w3.org/1999/xlink" id="Layer_1" x="0" y="0" enable-background="new 0 0 48 48" version="1.1" viewBox="0 0 48 48" xml:space="preserve" style="fill:#000"><g><path fill="#FFA000" d="M40,12H22l-4-4H8c-2.2,0-4,1.8-4,4v8h40v-4C44,13.8,42.2,12,40,12z"/></g><g><path fill="#FFCA28" d="M40,12H8c-2.2,0-4,1.8-4,4v20c0,2.2,1.8,4,4,4h32c2.2,0,4-1.8,4-4V16C44,13.8,42.2,12,40,12z"/></g><g><rect width="4" height="2" x="22" y="18" fill="#BF360C"/><rect width="4" height="2" x="22" y="12" fill="#BF360C"/><rect width="4" height="2" x="22" y="15" fill="#BF360C"/><rect width="4" height="2" x="22" y="21" fill="#BF360C"/><path fill="#BF360C" d="M26,24h-4c0,3-2,6-2,8c0,2.2,1.8,4,4,4s4-1.8,4-4C28,30,26,27,26,24z M24,34c-1.1,0-2-0.9-2-2s0.9-2,2-2 s2,0.9,2,2S25.1,34,24,34z"/></g></svg>