<svg xmlns="http://www.w3.org/2000/svg" xmlns:svg="http://www.w3.org/2000/svg" id="????????_1" width="38" height="38" x="0" y="0" contentScriptType="application/ecmascript" contentStyleType="text/css" enable-background="new 0 0 48 48" preserveAspectRatio="xMidYMid meet" version="1.1" viewBox="0 0 38 38" zoomAndPan="magnify" xml:space="preserve" style="fill:#000"><metadata id="metadata27"/><rect id="rect3" width="26" height="17" x="0" y="5.983" style="fill:#90caf9"/><rect id="rect5" width="26" height="17" x="12" y="19.983" style="fill:#8bc34a"/><g id="g7" transform="translate(-5,-5.0169491)"><rect id="rect9" width="7" height="7" x="9" y="16" style="fill:#3f51b5"/><rect id="rect11" width="7" height="7" x="20" y="16" style="fill:#3f51b5"/><path id="path13" d="M 31,11 31,7 C 31,6.447 30.553,6 30,6 L 6,6 C 5.448,6 5,6.447 5,7 l 0,4 26,0 z" style="fill:#3f51b5"/></g><g id="g15" transform="translate(-5,-5.0169491)"><rect id="rect17" width="7" height="7" x="21" y="30" style="fill:#558b2f"/><rect id="rect19" width="7" height="7" x="32" y="30" style="fill:#558b2f"/><path id="path21" d="m 43,25 0,-4 c 0,-0.553 -0.447,-1 -1,-1 l -24,0 c -0.552,0 -1,0.447 -1,1 l 0,4 26,0 z" style="fill:#558b2f"/></g></svg>