<svg xmlns="http://www.w3.org/2000/svg" xmlns:svg="http://www.w3.org/2000/svg" id="????????_1" width="36" height="36" x="0" y="0" contentScriptType="application/ecmascript" contentStyleType="text/css" enable-background="new 0 0 48 48" preserveAspectRatio="xMidYMid meet" version="1.1" viewBox="0 0 36 36" zoomAndPan="magnify" xml:space="preserve" style="fill:#36f"><metadata id="metadata15"/><path id="path3" d="m 0,22 0,10 c 0,2.209 1.791,4 4,4 l 28,0 c 2.209,0 4,-1.791 4,-4 L 36,22 0,22 Z" style="fill:#78909c"/><path id="path5" d="m 36,22 c 0,2.209 -1.791,4 -4,4 L 4,26 C 1.791,26 0,24.209 0,22 L 3,4 C 3.219,1.906 4.791,0 7,0 l 22,0 c 2.209,0 3.688,1.75 4,4 l 3,18 z" style="fill:#455a64"/><circle id="circle7" cx="29" cy="31" r="2" style="fill:#64dd17"/><path id="path9" d="M 18,5 C 11.373,5 6,8.134 6,12 c 0,3.865 5.373,7 12,7 6.627,0 12,-3.135 12,-7 C 30,8.134 24.627,5 18,5 Z m 0,8.555 c -1.473,0 -2.667,-0.695 -2.667,-1.555 0,-0.86 1.194,-1.556 2.667,-1.556 1.473,0 2.666,0.696 2.666,1.556 0,0.86 -1.193,1.555 -2.666,1.555 z" style="fill:#bbdefb"/></svg>