<svg xmlns="http://www.w3.org/2000/svg" xmlns:xlink="http://www.w3.org/1999/xlink" id="Layer_1" x="0" y="0" enable-background="new 0 0 48 48" version="1.1" viewBox="0 0 48 48" xml:space="preserve" style="fill:#36f"><path fill="#3F51B5" d="M42,9V4c0-0.6-0.4-1-1-1H7C6.4,3,6,3.4,6,4v5H42z"/><path fill="#BBDEFB" d="M6,8v29.9C6,38.5,6.5,39,7.1,39H19l5,6l5-6h12c0.6,0,1-0.4,1-1V8H6z"/><path fill="#1976D2" d="M26,33h-4V22h4V33z M26.5,16.5c0-1.4-1.1-2.5-2.5-2.5c-1.4,0-2.5,1.1-2.5,2.5S22.6,19,24,19 C25.4,19,26.5,17.9,26.5,16.5"/></svg>