<svg xmlns="http://www.w3.org/2000/svg" xmlns:xlink="http://www.w3.org/1999/xlink" id="????????_1" width="48" height="48" x="0" y="0" contentScriptType="application/ecmascript" contentStyleType="text/css" enable-background="new 0 0 48 48" preserveAspectRatio="xMidYMid meet" version="1.1" viewBox="0 0 48 48" zoomAndPan="magnify" xml:space="preserve" style="fill:#36f"><path fill="#CFD8DC" d="M15,13h25c1.104,0,2,0.896,2,2v25c0,1.104-0.896,2-2,2H26L15,13z"/><g><path fill="#546E7A" d="M26.832,34.854l-0.916-1.776l0.889-0.459c0.061-0.031,6.101-3.208,9.043-9.104l0.446-0.895l1.79,0.893 l-0.447,0.895c-3.241,6.496-9.645,9.85-9.916,9.989L26.832,34.854z"/><path fill="#546E7A" d="M38.019,34l-0.87-0.49c-0.207-0.116-5.092-2.901-8.496-7.667l1.627-1.162 c3.139,4.394,7.805,7.061,7.851,7.087L39,32.26L38.019,34z"/><rect width="14" height="2" x="26" y="22" fill="#546E7A"/><rect width="2" height="4" x="32" y="20" fill="#546E7A"/></g><path fill="#2196F3" d="M33,35H8c-1.104,0-2-0.896-2-2V8c0-1.104,0.896-2,2-2h14L33,35z"/><polygon fill="#3F51B5" points="26 42 23 35 33 35"/><path fill="#FFF" d="M19.172,24h-4.36l-1.008,3H11l4.764-13h2.444L23,27h-2.805L19.172,24z M15.444,22h3.101l-1.559-4.714 L15.444,22z"/></svg>