<svg xmlns="http://www.w3.org/2000/svg" xmlns:xlink="http://www.w3.org/1999/xlink" id="????????_1" width="48" height="48" x="0" y="0" contentScriptType="application/ecmascript" contentStyleType="text/css" enable-background="new 0 0 48 48" preserveAspectRatio="xMidYMid meet" version="1.1" viewBox="0 0 48 48" zoomAndPan="magnify" xml:space="preserve" style="fill:#36f"><path fill="#ECEFF1" d="M24,3C12.42,3,3,12.42,3,24c0,11.579,9.42,21,21,21c11.579,0,21-9.421,21-21C45,12.42,35.579,3,24,3L24,3z"/><circle cx="24" cy="24" r="18" fill="#1E88E5"/><g><rect width="7" height="2" x="15" y="28" fill="#FFF"/><rect width="7" height="2" x="26" y="28" fill="#FFF"/><rect width="7" height="2" x="15" y="25" fill="#FFF"/><rect width="7" height="2" x="26" y="25" fill="#FFF"/><path fill="#FFF" d="M20,21v-3c0-2.206,1.794-4,4-4c2.205,0,4,1.794,4,4v3h2v-3c0-3.313-2.687-6-6-6s-6,2.687-6,6v3H20z"/><rect width="18" height="2" x="15" y="22" fill="#FFF"/><rect width="18" height="2" x="15" y="31" fill="#FFF"/></g></svg>