<svg xmlns="http://www.w3.org/2000/svg" xmlns:svg="http://www.w3.org/2000/svg" id="????????_1" width="48" height="48" x="0" y="0" contentScriptType="application/ecmascript" contentStyleType="text/css" enable-background="new 0 0 48 48" preserveAspectRatio="xMidYMid meet" version="1.1" viewBox="0 0 48 48" zoomAndPan="magnify" xml:space="preserve" style="fill:#06f"><metadata id="metadata9"/><polygon id="polygon3" points="34 24 14 34 14 14" transform="matrix(1.5,0,0,1.5,-12,-12)" style="fill:#2196f3"/><path style="font-style:normal;font-weight:400;font-size:24.02693176px;line-height:125%;font-family:sans-serif;letter-spacing:0;word-spacing:0;fill:#000;fill-opacity:1;stroke:none;stroke-width:1px;stroke-linecap:butt;stroke-linejoin:miter;stroke-opacity:1" id="path4209" d="m 35.221068,35.955045 10.01953,8.132283 -3.515625,0 -7.714843,-6.412805 -7.714844,6.412805 -3.515625,0 10.019532,-8.132283 2.421875,0 z"/><path style="font-style:normal;font-weight:400;font-size:24.02693176px;line-height:125%;font-family:sans-serif;letter-spacing:0;word-spacing:0;fill:#000;fill-opacity:1;stroke:none;stroke-width:1px;stroke-linecap:butt;stroke-linejoin:miter;stroke-opacity:1" id="path4209-1" d="m 35.221068,29.529903 10.01953,8.132283 -3.515625,0 -7.714843,-6.412806 -7.714844,6.412806 -3.515625,0 10.019533,-8.132283 2.421874,0 z"/><path style="font-style:normal;font-weight:400;font-size:24.02693176px;line-height:125%;font-family:sans-serif;letter-spacing:0;word-spacing:0;fill:#000;fill-opacity:1;stroke:none;stroke-width:1px;stroke-linecap:butt;stroke-linejoin:miter;stroke-opacity:1" id="path4209-1-8" d="m 35.221068,23.10476 10.01953,8.132283 -3.515625,0 -7.714843,-6.412806 -7.714844,6.412806 -3.515625,0 10.019533,-8.132283 2.421874,0 z"/><path style="font-style:normal;font-weight:400;font-size:24.02693176px;line-height:125%;font-family:sans-serif;letter-spacing:0;word-spacing:0;fill:#000;fill-opacity:1;stroke:none;stroke-width:1px;stroke-linecap:butt;stroke-linejoin:miter;stroke-opacity:1" id="path4209-1-8-3" d="m 35.221068,16.679621 10.01953,8.132283 -3.515625,0 -7.714843,-6.412806 -7.714844,6.412806 -3.515625,0 10.019533,-8.132283 2.421874,0 z"/></svg>