<svg xmlns="http://www.w3.org/2000/svg" xmlns:xlink="http://www.w3.org/1999/xlink" id="????????_1" width="48" height="48" x="0" y="0" contentScriptType="application/ecmascript" contentStyleType="text/css" enable-background="new 0 0 48 48" preserveAspectRatio="xMidYMid meet" version="1.1" viewBox="0 0 48 48" zoomAndPan="magnify" xml:space="preserve" style="fill:#000"><path fill="#BBDEFB" d="M35,6H7C6.448,6,6,6.447,6,7v35h30V7C36,6.447,35.553,6,35,6z"/><path fill="#2196F3" d="M24,6h11c0.553,0,1,0.447,1,1v29H24V6z"/><rect width="36" height="6" x="6" y="36" fill="#3F51B5"/><circle cx="10" cy="39" r="2" fill="#FFEB3B"/><g><rect width="12" height="2" x="9" y="9" fill="#1976D2"/><rect width="12" height="2" x="9" y="13" fill="#1976D2"/></g><path fill="#FAFAFA" d="M34.125,32c0-0.553-0.447-1-1-1H27c-0.553,0-1,0.447-1,1l0,0c0,0.553,0.447,1,1,1h6.125 C33.678,33,34.125,32.553,34.125,32L34.125,32z"/></svg>