<svg xmlns="http://www.w3.org/2000/svg" xmlns:svg="http://www.w3.org/2000/svg" id="????????_1" width="48" height="48" x="0" y="0" contentScriptType="application/ecmascript" contentStyleType="text/css" enable-background="new 0 0 48 48" preserveAspectRatio="xMidYMid meet" version="1.1" viewBox="0 0 48 48" zoomAndPan="magnify" xml:space="preserve" style="fill:#000"><metadata id="metadata29"/><g id="g3" transform="matrix(1.203388,0,0,1.2033845,-4.8814268,-4.8812387)"><rect id="rect5" width="3" height="10" x="21.318" y="13.818" transform="matrix(0.7071,0.7071,-0.7071,0.7071,19.9895,-10.6232)" style="fill:#ffc107"/><rect id="rect7" width="3" height="10" x="27.682" y="20.182" transform="matrix(0.7071,0.7071,-0.7071,0.7071,26.3534,-13.2593)" style="fill:#ffc107"/></g><g id="g9" transform="matrix(1.203388,0,0,1.2033845,-4.8814268,-4.8812387)"><polygon id="polygon11" points="40 19.435 40 14 34 8 28.564 8 24.322 12.364 35.637 23.678" style="fill:#90a4ae"/><rect id="rect13" width="4" height="8.021" x="35.75" y="6.24" transform="matrix(0.707,0.7072,-0.7072,0.707,18.3104,-23.6945)" style="fill:#90a4ae"/><polygon id="polygon15" points="19.435 40 14 40 8 34 8 28.564 12.364 24.322 23.678 35.636" style="fill:#90a4ae"/><rect id="rect17" width="4" height="8.608" x="8.457" y="33.239" transform="matrix(0.707,0.7072,-0.7072,0.707,29.6155,3.6051)" style="fill:#90a4ae"/></g><g id="g19" transform="matrix(1.203388,0,0,1.2033845,-4.8814268,-4.8812387)"><rect id="rect21" width="20" height="4.001" x="18.565" y="17.434" transform="matrix(0.7071,0.7071,-0.7071,0.7071,22.1082,-14.5061)" style="fill:#546e7a"/><rect id="rect23" width="19.999" height="4" x="9.435" y="26.565" transform="matrix(0.7071,0.7071,-0.7071,0.7071,25.8908,-5.376)" style="fill:#546e7a"/></g><g style="fill:#d35400" id="g4170" transform="matrix(0.51739518,0,0,0.51739518,22.463871,23.480821)"><circle id="circle4158" cx="24" cy="24" r="19" style="fill:#f44336"/><rect id="rect4160" width="4" height="20" x="22" y="14" transform="matrix(0.7071,0.7071,-0.7071,0.7071,24,-9.9411)" style="fill:#fff"/><rect id="rect4162" width="4" height="20" x="22" y="14" transform="matrix(-0.7071,0.7071,-0.7071,-0.7071,57.9411,24)" style="fill:#fff"/></g></svg>