<svg xmlns="http://www.w3.org/2000/svg" xmlns:svg="http://www.w3.org/2000/svg" id="Layer_1" x="0" y="0" enable-background="new 0 0 48 48" version="1.0" viewBox="0 0 48 48" xml:space="preserve" style="fill:#000"><metadata id="metadata17"/><rect id="rect3" width="4" height="4" x="6" y="38" fill="#2196F3"/><rect id="rect5" width="12" height="4" x="6" y="30" fill="#2196F3"/><rect id="rect7" width="20" height="4" x="6" y="22" fill="#2196F3"/><rect id="rect9" width="28" height="4" x="6" y="14" fill="#2196F3"/><rect id="rect11" width="36" height="4" x="6" y="6" fill="#2196F3"/><g style="fill:#d35400" id="g4160" transform="matrix(0.51734609,0,0,0.51734609,20.337395,19.862358)"><g id="g4146"><g id="g4148"><polygon id="polygon4150" points="18 7.3 4 19 18 30.7" style="fill:#3f51b5"/></g><path id="path4152" d="m 42,27 0,13 -8,0 0,-13 c 0,-2.2 -1.8,-4 -4,-4 l -17,0 0,-8 17,0 c 6.6,0 12,5.4 12,12 z" style="fill:#3f51b5"/></g></g></svg>