<svg xmlns="http://www.w3.org/2000/svg" xmlns:svg="http://www.w3.org/2000/svg" id="Layer_1" x="0" y="0" enable-background="new 0 0 48 48" version="1.0" viewBox="0 0 48 48" xml:space="preserve" style="fill:#000"><metadata id="metadata11"/><path id="path3" fill="#FF9800" d="M38,42H10c-2.2,0-4-1.8-4-4V10c0-2.2,1.8-4,4-4h28c2.2,0,4,1.8,4,4v28C42,40.2,40.2,42,38,42z"/><path id="path5" fill="#8A5100" d="M29.5,16h-11c-0.8,0-1.5-0.7-1.5-1.5v0c0-0.8,0.7-1.5,1.5-1.5h11c0.8,0,1.5,0.7,1.5,1.5v0 C31,15.3,30.3,16,29.5,16z"/><g style="fill:#d35400" id="g4154" transform="matrix(0.56174334,0,0,0.56174334,21.196126,20.992737)"><circle id="circle4140" cx="24" cy="24" r="21" style="fill:#4caf50"/><g id="g4142"><rect id="rect4144" width="6" height="20" x="21" y="14" style="fill:#fff"/><rect id="rect4146" width="20" height="6" x="14" y="21" style="fill:#fff"/></g></g></svg>