<svg xmlns="http://www.w3.org/2000/svg" xmlns:xlink="http://www.w3.org/1999/xlink" id="????????_1" width="48" height="48" x="0" y="0" contentScriptType="application/ecmascript" contentStyleType="text/css" enable-background="new 0 0 48 48" preserveAspectRatio="xMidYMid meet" version="1.1" viewBox="0 0 48 48" zoomAndPan="magnify" xml:space="preserve" style="fill:#000"><path fill="#455A64" d="M32,6h-8c0,1.104-1,3-3,3s-3-1.896-3-3h-8c-2.209,0-4,1.791-4,4v30c0,2.209,1.791,4,4,4h22 c2.209,0,4-1.791,4-4V10C36,7.791,34.209,6,32,6"/><path fill="#FFF" d="M32,41H10c-0.552,0-1-0.448-1-1V10c0-0.552,0.448-1,1-1h22c0.552,0,1,0.448,1,1v30 C33,40.552,32.552,41,32,41z"/><g><path fill="#90A4AE" d="M23,6c0,1.105-0.895,2-2,2s-2-0.895-2-2h-7v4c0,1.105,0.895,2,2,2h14c1.105,0,2-0.895,2-2V6H23z"/><path fill="#90A4AE" d="M21,2c-2.206,0-4,1.794-4,4s1.794,4,4,4s4-1.794,4-4S23.206,2,21,2 M21,8c-1.103,0-2-0.896-2-2s0.897-2,2-2 s2,0.896,2,2S22.103,8,21,8"/></g><rect width="25" height="30" x="17" y="17" fill="#90CAF9"/><g><rect width="12" height="2" x="21" y="37" fill="#1976D2"/><rect width="17" height="2" x="21" y="33" fill="#1976D2"/><rect width="12" height="2" x="21" y="29" fill="#1976D2"/><rect width="17" height="2" x="21" y="25" fill="#1976D2"/></g></svg>