<svg xmlns="http://www.w3.org/2000/svg" xmlns:svg="http://www.w3.org/2000/svg" id="????????_1" width="48" height="48" x="0" y="0" contentScriptType="application/ecmascript" contentStyleType="text/css" enable-background="new 0 0 48 48" preserveAspectRatio="xMidYMid meet" version="1.1" viewBox="0 0 48 48" zoomAndPan="magnify" xml:space="preserve" style="fill:#000"><metadata id="metadata9"/><polygon id="polygon3" points="34 24 14 34 14 14" transform="matrix(1.5,0,0,1.5,-12,-12)" style="fill:#2196f3"/><g style="font-style:normal;font-weight:400;font-size:24.02693176px;line-height:125%;font-family:sans-serif;letter-spacing:0;word-spacing:0;fill:#d35400;fill-opacity:1;stroke:none;stroke-width:1px;stroke-linecap:butt;stroke-linejoin:miter;stroke-opacity:1" id="g4271" transform="matrix(0.62371416,0,0,0.62371413,14.113052,18.498672)"><polygon id="polygon4257" points="17.017 42 17 40 42 40 42 42" style="fill:#b0bec5"/><path id="path4259" d="M 30.749,32.749 42.77,20.729 c 0.781,-0.781 0.781,-2.048 0,-2.829 L 31.456,6.586 c -0.781,-0.781 -2.048,-0.781 -2.829,0 l -12.021,12.02 14.143,14.143 z" style="fill:#607d8b"/><path id="path4261" d="m 39.728,23.771 3.042,-3.042 c 0.781,-0.781 0.781,-2.048 0,-2.829 L 31.456,6.586 c -0.781,-0.781 -2.048,-0.781 -2.829,0 l -3.043,3.042 14.144,14.143 z" style="fill:#546e7a"/><path id="path4263" d="M 21.367,42 30.749,32.749 16.606,18.606 4.586,30.628 c -0.781,0.78 -0.781,2.047 0,2.828 L 13,42 l 8.367,0 z" style="fill:#cfd8dc"/></g></svg>