<svg xmlns="http://www.w3.org/2000/svg" xmlns:svg="http://www.w3.org/2000/svg" id="????????_1" width="37" height="37" x="0" y="0" contentScriptType="application/ecmascript" contentStyleType="text/css" enable-background="new 0 0 48 48" preserveAspectRatio="xMidYMid meet" version="1.1" viewBox="0 0 37 37" zoomAndPan="magnify" xml:space="preserve" style="fill:#000"><metadata id="metadata23"/><g id="g4151" transform="translate(2.4877365,0.0014982)"><g id="g3" transform="translate(-7.9994729,-4.9779984)"><polygon style="fill:#ffc107" id="polygon5" points="20.052 16.048 22 17.992 33.081 6.919 31.134 4.975"/><polygon style="fill:#ffc107" id="polygon7" points="27.004 22.996 28.918 24.906 39.999 13.833 38.086 11.923"/></g><path style="fill:#cfd8dc" id="path9" d="m 7.5035271,37.000002 c -1.325,0 -2.254,-0.11 -2.368,-0.125 -3.05,-0.673 -4.72499999,-1.865 -5.07199999,-3.562 -0.625,-3.057 3.55599999,-6.153 4.03399999,-6.496 l 1.166,1.625 c -1.182,0.851 -3.53,3.062 -3.24,4.472 0.17,0.828 1.396,1.536 3.453,1.992 l 0,0 c 0.04,0 7.5889999,0.872 10.2699999,-2.7 3.209,-4.274 12.736,-4.206 15.867,-4.186 l 0.411,0.002 0,2 -0.426,-0.002 c -9.615,-0.06 -13.065,1.805 -14.253,3.387 -2.312,3.081 -6.991,3.593 -9.8419999,3.593 z"/><polygon style="fill:#90a4ae" id="polygon11" points="31.74 26.518 18.442 13.229 13.883 17.784 14.502 24.79 20.145 30.47 27.181 31.073" transform="translate(-7.9994729,-4.9779984)"/><g id="g13" transform="translate(-7.9994729,-4.9779984)"><polygon style="fill:#546e7a" id="polygon15" points="14.502 24.79 10.065 30.456 14.498 34.886 20.146 30.47 20.145 30.47"/><polygon style="fill:#546e7a" id="polygon17" points="20.555 8.164 36.809 24.404 32.704 28.507 16.451 12.265"/></g></g></svg>