<svg xmlns="http://www.w3.org/2000/svg" xmlns:svg="http://www.w3.org/2000/svg" style="fill:#000" id="svg2" width="50" height="50" version="1.1" viewBox="0 0 50 50"><metadata id="metadata10"/><g style="fill:#d35400" id="g4188" transform="matrix(2,0,0,2,-77.661017,-32.533898)"><polygon id="polygon4170" points="6 41 6 3 25 3 34 12 34 41" transform="matrix(0.47949853,0,0,0.47949853,38.504365,18.586323)" style="fill:#90caf9"/><polygon id="polygon4172" points="32.5 13 24 13 24 4.5" transform="matrix(0.47949853,0,0,0.47949853,38.504365,18.586323)" style="fill:#e1f5fe"/></g><g style="font-style:normal;font-weight:400;font-size:24.02693176px;line-height:125%;font-family:sans-serif;letter-spacing:0;word-spacing:0;fill:#000;fill-opacity:1;stroke:none;stroke-width:1px;stroke-linecap:butt;stroke-linejoin:miter;stroke-opacity:1" id="text4204" transform="matrix(0,0.60067329,1.6647985,0,0,0)"><path style="font-style:normal;font-weight:400;font-size:24.02693176px;line-height:125%;font-family:sans-serif;letter-spacing:0;word-spacing:0;fill:#000;fill-opacity:1;stroke:none;stroke-width:1px;stroke-linecap:butt;stroke-linejoin:miter;stroke-opacity:1" id="path4209" d="m 59.540465,22.743582 13.538613,6.018464 0,-2.111742 -10.676029,-4.6341 10.676029,-4.634101 0,-2.111742 -13.538613,6.018465 0,1.454756 z"/><path style="font-style:normal;font-weight:400;font-size:24.02693176px;line-height:125%;font-family:sans-serif;letter-spacing:0;word-spacing:0;fill:#000;fill-opacity:1;stroke:none;stroke-width:1px;stroke-linecap:butt;stroke-linejoin:miter;stroke-opacity:1" id="path4209-1" d="m 48.782763,22.743582 13.538613,6.018464 0,-2.111742 -10.67603,-4.6341 10.67603,-4.634101 0,-2.111742 -13.538613,6.018466 0,1.454755 z"/><path style="font-style:normal;font-weight:400;font-size:24.02693176px;line-height:125%;font-family:sans-serif;letter-spacing:0;word-spacing:0;fill:#000;fill-opacity:1;stroke:none;stroke-width:1px;stroke-linecap:butt;stroke-linejoin:miter;stroke-opacity:1" id="path4209-1-8" d="m 38.02506,22.743582 13.538613,6.018464 0,-2.111742 -10.67603,-4.6341 10.67603,-4.634101 0,-2.111742 -13.538613,6.018466 0,1.454755 z"/></g></svg>