<svg xmlns="http://www.w3.org/2000/svg" xmlns:svg="http://www.w3.org/2000/svg" style="fill:#000" id="svg2" width="50" height="50" version="1.1" viewBox="0 0 50 50"><metadata id="metadata10"/><g style="fill:#d35400" id="g4188" transform="matrix(2,0,0,2,-77.661017,-32.533898)"><polygon id="polygon4170" points="6 41 6 3 25 3 34 12 34 41" transform="matrix(0.47949853,0,0,0.47949853,38.504365,18.586323)" style="fill:#90caf9"/><polygon id="polygon4172" points="32.5 13 24 13 24 4.5" transform="matrix(0.47949853,0,0,0.47949853,38.504365,18.586323)" style="fill:#e1f5fe"/></g><g style="font-style:normal;font-weight:400;font-size:24.02693176px;line-height:125%;font-family:sans-serif;letter-spacing:0;word-spacing:0;fill:#000;fill-opacity:1;stroke:none;stroke-width:1px;stroke-linecap:butt;stroke-linejoin:miter;stroke-opacity:1" id="text4204" transform="matrix(0,0.60067329,1.6647985,0,0,0)"><g style="fill:#d35400" id="g4271" transform="matrix(0,0.48019426,1.3308843,0,17.085515,8.6725922)"><polygon id="polygon4257" points="42 42 17.017 42 17 40 42 40" style="fill:#b0bec5"/><path id="path4259" d="M 30.749,32.749 42.77,20.729 c 0.781,-0.781 0.781,-2.048 0,-2.829 L 31.456,6.586 c -0.781,-0.781 -2.048,-0.781 -2.829,0 l -12.021,12.02 14.143,14.143 z" style="fill:#607d8b"/><path id="path4261" d="m 39.728,23.771 3.042,-3.042 c 0.781,-0.781 0.781,-2.048 0,-2.829 L 31.456,6.586 c -0.781,-0.781 -2.048,-0.781 -2.829,0 l -3.043,3.042 14.144,14.143 z" style="fill:#546e7a"/><path id="path4263" d="M 21.367,42 30.749,32.749 16.606,18.606 4.586,30.628 c -0.781,0.78 -0.781,2.047 0,2.828 L 13,42 l 8.367,0 z" style="fill:#cfd8dc"/></g></g></svg>