<svg xmlns="http://www.w3.org/2000/svg" xmlns:xlink="http://www.w3.org/1999/xlink" id="????????_1" width="48" height="48" x="0" y="0" contentScriptType="application/ecmascript" contentStyleType="text/css" enable-background="new 0 0 48 48" preserveAspectRatio="xMidYMid meet" version="1.1" viewBox="0 0 48 48" zoomAndPan="magnify" xml:space="preserve" style="fill:#000"><path fill="none" stroke="#B0BEC5" stroke-width="2" d="M9,12.332C9,10.492,10.492,9,12.333,9h23.335C37.508,9,39,10.492,39,12.332 v23.336C39,37.508,37.508,39,35.668,39H12.333C10.492,39,9,37.508,9,35.668V12.332z"/><g><path fill="#455A64" d="M15,27c0,1.104-0.896,2-2,2H5c-1.104,0-2-0.896-2-2v-6c0-1.104,0.896-2,2-2h8c1.104,0,2,0.896,2,2V27z"/><path fill="#455A64" d="M30,12c0,1.104-0.896,2-2,2h-8c-1.104,0-2-0.896-2-2V6c0-1.104,0.896-2,2-2h8c1.104,0,2,0.896,2,2V12z"/><path fill="#455A64" d="M30,42c0,1.104-0.896,2-2,2h-8c-1.104,0-2-0.896-2-2v-6c0-1.104,0.896-2,2-2h8c1.104,0,2,0.896,2,2V42z"/><path fill="#455A64" d="M45,27c0,1.104-0.896,2-2,2h-8c-1.104,0-2-0.896-2-2v-6c0-1.104,0.896-2,2-2h8c1.104,0,2,0.896,2,2V27z"/></g><g><rect width="8" height="6" x="5" y="21" fill="#90CAF9"/><rect width="8" height="6" x="20" y="6" fill="#90CAF9"/><rect width="8" height="6" x="20" y="36" fill="#90CAF9"/><rect width="8" height="6" x="35" y="21" fill="#90CAF9"/></g></svg>