<svg xmlns="http://www.w3.org/2000/svg" xmlns:svg="http://www.w3.org/2000/svg" id="????????_1" width="48" height="48" x="0" y="0" contentScriptType="application/ecmascript" contentStyleType="text/css" enable-background="new 0 0 48 48" preserveAspectRatio="xMidYMid meet" version="1.1" viewBox="0 0 48 48" zoomAndPan="magnify" xml:space="preserve" style="fill:#06f"><metadata id="metadata11"/><path id="path3" fill="#2196F3" d="M37,6H11c-2.762,0-5,2.238-5,5v26c0,2.762,2.238,5,5,5h26c2.762,0,5-2.238,5-5V11C42,8.238,39.762,6,37,6z"/><rect id="rect5" width="26" height="26" x="11" y="11" fill="#E1F5FE"/><g style="fill:#06f" id="g4175" transform="translate(-3.5352437e-4,4.5340576e-4)"><g id="g4163"><rect id="rect4165" width="5.001" height="39" x="21.5" y="4.5" transform="matrix(0.7071,0.7071,-0.7071,0.7071,24,-9.9411)" style="fill:#f44336"/><rect id="rect4167" width="5" height="39.001" x="21.5" y="4.5" transform="matrix(-0.7072,0.707,-0.707,-0.7072,57.9411,24.0047)" style="fill:#f44336"/></g></g></svg>