<svg xmlns="http://www.w3.org/2000/svg" xmlns:svg="http://www.w3.org/2000/svg" id="????????_1" width="48" height="48" x="0" y="0" contentScriptType="application/ecmascript" contentStyleType="text/css" enable-background="new 0 0 48 48" preserveAspectRatio="xMidYMid meet" version="1.1" viewBox="0 0 48 48" zoomAndPan="magnify" xml:space="preserve" style="fill:#06f"><metadata id="metadata29"/><g id="g3"><rect id="rect5" width="3" height="10" x="21.318" y="13.818" fill="#FFC107" transform="matrix(0.7071 0.7071 -0.7071 0.7071 19.9895 -10.6232)"/><rect id="rect7" width="3" height="10" x="27.682" y="20.182" fill="#FFC107" transform="matrix(0.7071 0.7071 -0.7071 0.7071 26.3534 -13.2593)"/></g><g id="g9"><polygon id="polygon11" fill="#90A4AE" points="35.637 23.678 40 19.435 40 14 34 8 28.564 8 24.322 12.364"/><rect id="rect13" width="4" height="8.021" x="35.75" y="6.24" fill="#90A4AE" transform="matrix(0.707 0.7072 -0.7072 0.707 18.3104 -23.6945)"/><polygon id="polygon15" fill="#90A4AE" points="23.678 35.636 19.435 40 14 40 8 34 8 28.564 12.364 24.322"/><rect id="rect17" width="4" height="8.608" x="8.457" y="33.239" fill="#90A4AE" transform="matrix(0.707 0.7072 -0.7072 0.707 29.6155 3.6051)"/></g><g id="g19"><rect id="rect21" width="20" height="4.001" x="18.565" y="17.434" fill="#546E7A" transform="matrix(0.7071 0.7071 -0.7071 0.7071 22.1082 -14.5061)"/><rect id="rect23" width="19.999" height="4" x="9.435" y="26.565" fill="#546E7A" transform="matrix(0.7071 0.7071 -0.7071 0.7071 25.8908 -5.376)"/></g><g style="fill:#06f" id="g4175" transform="translate(-3.5352437e-4,4.5340576e-4)"><g id="g4163"><rect id="rect4165" width="5.001" height="39" x="21.5" y="4.5" transform="matrix(0.7071,0.7071,-0.7071,0.7071,24,-9.9411)" style="fill:#f44336"/><rect id="rect4167" width="5" height="39.001" x="21.5" y="4.5" transform="matrix(-0.7072,0.707,-0.707,-0.7072,57.9411,24.0047)" style="fill:#f44336"/></g></g></svg>