<svg xmlns="http://www.w3.org/2000/svg" xmlns:svg="http://www.w3.org/2000/svg" id="????????_1" width="48" height="48" x="0" y="0" contentScriptType="application/ecmascript" contentStyleType="text/css" enable-background="new 0 0 48 48" preserveAspectRatio="xMidYMid meet" version="1.1" viewBox="0 0 48 48" zoomAndPan="magnify" xml:space="preserve" style="fill:#06f"><metadata id="metadata35"/><polygon id="polygon3" fill="#42A5F5" points="31 36 6 36 6 3 23 3 31 11"/><polygon id="polygon5" fill="#E1F5FE" points="29.5 12 22 12 22 4.5"/><g id="g7"><rect id="rect9" width="16" height="2" x="11" y="16" fill="#1565C0"/><rect id="rect11" width="12" height="2" x="11" y="20" fill="#1565C0"/><rect id="rect13" width="16" height="2" x="11" y="24" fill="#1565C0"/><rect id="rect15" width="12" height="2" x="11" y="28" fill="#1565C0"/></g><polygon id="polygon17" fill="#90CAF9" points="42 44 17 44 17 11 34 11 42 19"/><polygon id="polygon19" fill="#E1F5FE" points="40.5 20 33 20 33 12.5"/><g id="g21"><rect id="rect23" width="15" height="2" x="22" y="24" fill="#1976D2"/><rect id="rect25" width="11" height="2" x="22" y="28" fill="#1976D2"/><rect id="rect27" width="15" height="2" x="22" y="32" fill="#1976D2"/><rect id="rect29" width="11" height="2" x="22" y="36" fill="#1976D2"/></g><g style="fill:#06f" id="g4175" transform="translate(-3.5352437e-4,4.5340576e-4)"><g id="g4163"><rect id="rect4165" width="5.001" height="39" x="21.5" y="4.5" transform="matrix(0.7071,0.7071,-0.7071,0.7071,24,-9.9411)" style="fill:#f44336"/><rect id="rect4167" width="5" height="39.001" x="21.5" y="4.5" transform="matrix(-0.7072,0.707,-0.707,-0.7072,57.9411,24.0047)" style="fill:#f44336"/></g></g></svg>