<svg xmlns="http://www.w3.org/2000/svg" xmlns:svg="http://www.w3.org/2000/svg" id="????????_1" width="48" height="48" x="0" y="0" contentScriptType="application/ecmascript" contentStyleType="text/css" enable-background="new 0 0 48 48" preserveAspectRatio="xMidYMid meet" version="1.1" viewBox="0 0 48 48" zoomAndPan="magnify" xml:space="preserve" style="fill:#06f"><metadata id="metadata25"/><polygon id="polygon3" fill="#F44336" points="42 42 6 42 6 6 37 6 42 11"/><path id="path5" fill="#FFF" d="M39,39c0,0.553-0.447,1-1,1H10c-0.553,0-1-0.447-1-1V25c0-0.553,0.447-1,1-1h28c0.553,0,1,0.447,1,1V39z"/><g id="g7"><rect id="rect9" width="22" height="2" x="13" y="31" fill="#CFD8DC"/><rect id="rect11" width="22" height="2" x="13" y="27" fill="#CFD8DC"/><rect id="rect13" width="22" height="2" x="13" y="35" fill="#CFD8DC"/></g><path id="path15" fill="#C62828" d="M9,6v10c0,1.104,0.896,2,2,2h15c1.104,0,2-0.896,2-2V6H9z"/><path id="path17" fill="#B0BEC5" d="M15,6v10c0,1.104,0.896,2,2,2h15c1.104,0,2-0.896,2-2V6H15z"/><rect id="rect19" width="4" height="8" x="26" y="8" fill="#263238"/><circle style="fill:#000;fill-opacity:1;stroke:#fff;stroke-opacity:1" id="path4153" cx="22.881" cy="41.695" r="3.763"/><circle style="fill:#000;fill-opacity:1;stroke:#fff;stroke-opacity:1" id="path4153-9" cx="31.475" cy="41.695" r="3.763"/><circle style="fill:#000;fill-opacity:1;stroke:#fff;stroke-opacity:1" id="path4153-7" cx="40.068" cy="41.695" r="3.763"/></svg>