<svg xmlns="http://www.w3.org/2000/svg" xmlns:svg="http://www.w3.org/2000/svg" id="????????_1" width="48" height="48" x="0" y="0" contentScriptType="application/ecmascript" contentStyleType="text/css" enable-background="new 0 0 48 48" preserveAspectRatio="xMidYMid meet" version="1.1" viewBox="0 0 48 48" zoomAndPan="magnify" xml:space="preserve" style="fill:#06f"><metadata id="metadata17"/><path id="path3" d="m 34,41 c 0,0.553 -0.448,1 -1,1 L 6,42 6,7 C 6,6.447 6.447,6 7,6 l 26,0 c 0.552,0 1,0.447 1,1 l 0,34 z" style="fill:#bbdefb"/><path id="path5" d="m 28,6 13,0 c 0.553,0 1,0.447 1,1 l 0,35 -14,0 0,-36 z" style="fill:#3f51b5"/><circle id="circle7" cx="-38" cy="10" r="2" transform="scale(-1,1)" style="fill:#ffeb3b"/><circle id="circle9" cx="-32" cy="10" r="2" transform="scale(-1,1)" style="fill:#8bc34a"/><path id="path11" d="m 30,15 c 0,-0.553 0.447,-1 1,-1 l 8,0 c 0.553,0 1,0.447 1,1 l 0,0 c 0,0.553 -0.447,1 -1,1 l -8,0 c -0.553,0 -1,-0.447 -1,-1 l 0,0 z" style="fill:#fafafa"/></svg>