<svg xmlns="http://www.w3.org/2000/svg" xmlns:svg="http://www.w3.org/2000/svg" id="????????_1" width="48" height="48" x="0" y="0" contentScriptType="application/ecmascript" contentStyleType="text/css" enable-background="new 0 0 48 48" preserveAspectRatio="xMidYMid meet" version="1.1" viewBox="0 0 48 48" zoomAndPan="magnify" xml:space="preserve" style="fill:#06f"><metadata id="metadata9"/><rect id="rect3" width="24" height="24" x="12" y="12" style="fill:#2196f3;fill-opacity:1"/><path style="fill:#ff0800;fill-opacity:1" id="path5" d="m 44.353985,29.219124 c -0.910675,-0.561632 -2.151607,-0.226433 -2.780478,0.767302 l -2.274217,2.887267 0,-0.08503 0,-0.826628 0,-12.58433 c -0.002,-0.741593 -0.739615,-1.334867 -1.483184,-1.326957 -0.747526,0.0079 -1.493074,0.619972 -1.483185,1.361565 l 0,8.963381 c -0.314436,-0.13744 -0.643703,-0.247199 -0.98879,-0.317403 l 0,-10.639379 c -0.0029,-0.736649 -0.703031,-1.332889 -1.452533,-1.324979 -0.743569,0.0079 -1.514827,0.619972 -1.513838,1.358598 l 0,10.506882 -0.988789,0 0,-9.584341 c -0.0029,-0.739615 -0.754447,-1.307181 -1.499006,-1.292349 -0.75148,0.007 -1.470331,0.589318 -1.467365,1.332889 l 0,9.643668 c -0.345087,0.07021 -0.674354,0.180949 -0.98879,0.317403 l 0,-7.016455 c -0.0089,-0.738626 -0.753458,-1.333877 -1.499006,-1.326955 -0.750491,0.0178 -1.467363,0.62096 -1.467363,1.370462 l 0.0445,9.346043 9.89e-4,0.141401 c -0.01384,0.151285 -0.04549,0.297626 -0.04549,0.451877 l 0,6.504261 c 0,2.731039 2.212912,4.94395 4.943951,4.94395 l 4.943948,0 c 2.966371,0 4.841117,-2.292015 5.93274,-3.95516 l 4.599851,-6.803864 c 0.617995,-0.993734 0.380685,-2.245541 -0.533946,-2.813107 z"/></svg>