<svg xmlns="http://www.w3.org/2000/svg" xmlns:svg="http://www.w3.org/2000/svg" id="????????_1" width="48" height="48" x="0" y="0" contentScriptType="application/ecmascript" contentStyleType="text/css" enable-background="new 0 0 48 48" preserveAspectRatio="xMidYMid meet" version="1.1" viewBox="0 0 48 48" zoomAndPan="magnify" xml:space="preserve" style="fill:#06f"><metadata id="metadata35"/><g id="g3"><g id="g5"><path id="path7" fill="#FFCC80" d="M20.959,30H36V6H20.959c-3.247,0-5.878,2.686-5.878,5.997V24C15.081,27.315,17.712,30,20.959,30z"/><path id="path9" fill="#FFCC80" d="M32,27c0-1.657,1.343-3,3-3h3c1.657,0,3,1.343,3,3l0,0c0,1.657-1.343,3-3,3h-3C33.343,30,32,28.657,32,27 L32,27z"/><path id="path11" fill="#FFCC80" d="M29,21c0-1.657,1.343-3,3-3h6c1.657,0,3,1.343,3,3l0,0c0,1.657-1.343,3-3,3h-6C30.343,24,29,22.657,29,21 L29,21z"/><path id="path13" fill="#FFCC80" d="M28,15c0-1.657,1.343-3,3-3h6c1.657,0,3,1.343,3,3l0,0c0,1.657-1.343,3-3,3h-6C29.343,18,28,16.657,28,15 L28,15z"/><path id="path15" fill="#FFCC80" d="M27,9c0-1.657,1.343-3,3-3h6c1.657,0,3,1.343,3,3l0,0c0,1.657-1.343,3-3,3h-6C28.343,12,27,10.657,27,9 L27,9z"/><path id="path17" fill="#FFCC80" d="M17.407,28.746l8.193-4.266l2.626,4.763c1.36,2.462,1.813,5.243,1.813,8.071v1.392 C30.04,40,28.854,42,27.072,42h-0.675c-0.582,0-1.092-0.402-1.231-0.98l-0.724-2.955c-0.334-1.354-0.99-2.601-1.916-3.631 L17.407,28.746z"/></g><g id="g19"><path id="path21" fill="#F2A25A" d="M39,24h-4c-0.552,0-1-0.447-1-1s0.448-1,1-1L39,24z"/><path id="path23" fill="#F2A25A" d="M38,18h-4c-0.552,0-1-0.447-1-1s0.448-1,1-1L38,18z"/><path id="path25" fill="#F2A25A" d="M37,12h-4c-0.552,0-1-0.447-1-1s0.448-1,1-1L37,12z"/></g><rect id="rect27" width="10" height="22" x="6.04" y="7" fill="#009688" style="fill:red;fill-opacity:1"/><circle id="circle29" cx="11.04" cy="12" r="2" fill="#B2DFDB"/></g></svg>