<svg xmlns="http://www.w3.org/2000/svg" xmlns:xlink="http://www.w3.org/1999/xlink" id="????????_1" width="48" height="48" x="0" y="0" contentScriptType="application/ecmascript" contentStyleType="text/css" enable-background="new 0 0 48 48" preserveAspectRatio="xMidYMid meet" version="1.1" viewBox="0 0 48 48" zoomAndPan="magnify" xml:space="preserve" style="fill:#06f"><path fill="#3F51B5" d="M42,16c0,0.553-0.447,2-1,2H7c-0.552,0-1-1.447-1-2V7c0-0.553,0.448-1,1-1h34c0.553,0,1,0.447,1,1V16z"/><rect width="36" height="28" x="6" y="14" fill="#BBDEFB"/><circle cx="10" cy="10" r="2" fill="#FFEB3B"/><circle cx="16" cy="10" r="2" fill="#8BC34A"/><path fill="#FAFAFA" d="M40,10c0-0.553-0.447-1-1-1H22c-0.553,0-1,0.447-1,1l0,0c0,0.553,0.447,1,1,1h17C39.553,11,40,10.553,40,10 L40,10z"/></svg>