<svg xmlns="http://www.w3.org/2000/svg" xmlns:xlink="http://www.w3.org/1999/xlink" id="????????_1" width="48" height="48" x="0" y="0" contentScriptType="application/ecmascript" contentStyleType="text/css" enable-background="new 0 0 48 48" preserveAspectRatio="xMidYMid meet" version="1.1" viewBox="0 0 48 48" zoomAndPan="magnify" xml:space="preserve" style="fill:#06f"><path fill="#9FA8DA" d="M12,13v25c0,2.209,1.791,4,4,4h16c2.209,0,4-1.791,4-4V13H12z"/><g><rect width="2" height="23" x="23" y="15" fill="#7986CB"/><rect width="2" height="23" x="29" y="15" fill="#7986CB"/><rect width="2" height="23" x="17" y="15" fill="#7986CB"/></g><g><rect width="28" height="4" x="10" y="11" fill="#5C6BC0"/><path fill="#5C6BC0" d="M21.8,13.026C21.308,12.492,21,11.784,21,11c0-1.657,1.343-3,3-3c1.656,0,3,1.343,3,3 c0,0.784-0.308,1.492-0.801,2.026h2.364C28.84,12.406,29,11.723,29,11c0-2.762-2.238-5-5-5c-2.761,0-5,2.238-5,5 c0,0.723,0.16,1.406,0.437,2.026H21.8z"/></g></svg>