<svg xmlns="http://www.w3.org/2000/svg" xmlns:svg="http://www.w3.org/2000/svg" id="????????_1" width="48" height="48" x="0" y="0" contentScriptType="application/ecmascript" contentStyleType="text/css" enable-background="new 0 0 48 48" preserveAspectRatio="xMidYMid meet" version="1.1" viewBox="0 0 48 48" zoomAndPan="magnify" xml:space="preserve" style="fill:#000"><metadata id="metadata11"/><path id="path3" d="m 44.731153,9.6 c 0,0 1.295308,27.6 -20.507101,38.4 C 1.973016,37.2 3.2683243,9.6 3.2683243,9.6 13.63468,9.6 23.999739,0 23.999739,0 c 0,0 9.06975,9.6 20.731414,9.6 z" style="fill:#ffc107"/><path id="path5" d="m 20.99971,33.7704 c 0,-0.3228 0.0705,-0.618 0.214499,-0.8952 0.141,-0.2736 0.343499,-0.5112 0.604498,-0.7104 0.256499,-0.2016 0.572998,-0.3588 0.935996,-0.4716 0.365999,-0.1104 0.776997,-0.1692 1.235995,-0.1692 0.458998,0 0.872996,0.0588 1.241995,0.1692 0.374998,0.1128 0.691497,0.27 0.947996,0.4716 0.262499,0.1992 0.464998,0.4368 0.604497,0.7104 0.144,0.2772 0.214499,0.5724 0.214499,0.8952 0,0.324 -0.0705,0.6192 -0.214499,0.888 -0.140999,0.27 -0.343498,0.5028 -0.604497,0.7056 -0.256499,0.1992 -0.572998,0.3552 -0.947996,0.4704 C 24.863694,35.9448 24.449696,36 23.990698,36 23.5302,36 23.120702,35.9448 22.754703,35.8332 22.391705,35.718 22.075206,35.562 21.818707,35.3628 21.556208,35.16 21.353709,34.9272 21.214209,34.6572 21.07021,34.3884 20.99971,34.0932 20.99971,33.7704 m 5.219979,-4.9704 -4.459482,0 -0.631497,-14.4 5.720976,0 -0.629997,14.4 z" style="fill:#5d4037"/></svg>