<svg xmlns="http://www.w3.org/2000/svg" xmlns:svg="http://www.w3.org/2000/svg" style="fill:#000;fill-opacity:1" id="svg2" enable-background="new 0 0 50 50" version="1.1" viewBox="0 0 50 50"><metadata id="metadata10"/><path style="color:#000;line-height:normal;font-family:'Bitstream Vera Sans';-inkscape-font-specification:'Bitstream Vera Sans';text-indent:0;text-align:start;text-transform:none;block-progression:tb;overflow:visible;enable-background:accumulate" id="path4" d="M 13.769899,9.78125 7.2776156,16.5625 3.6574944,12.78125 2.28125,14.21875 l 4.3082434,4.5 0.6881222,0.6875 0.6881222,-0.6875 7.1804052,-7.5 z M 15.330184,15 l 0,2 32.551172,0 0,-2 z M 4.6148818,28.28125 3.2386374,29.71875 7.3374523,34 3.2386374,38.28125 4.6148818,39.71875 8.7136967,35.4375 12.812512,39.71875 14.188756,38.28125 10.089941,34 14.188756,29.71875 12.812512,28.28125 8.7136967,32.5625 Z M 15.330184,33 l 0,2 32.551172,0 0,-2 z" overflow="visible"/><rect style="fill:none;fill-opacity:1;stroke:#000;stroke-width:.93699282;stroke-linecap:round;stroke-linejoin:round;stroke-miterlimit:4;stroke-dasharray:none;stroke-opacity:1" id="rect4138" width="49.063" height="17.071" x=".468" y="7.248"/></svg>