<svg xmlns="http://www.w3.org/2000/svg" style="fill:#000;fill-opacity:1" width="50" height="50" viewBox="0 0 50 50"><path d="M 24.90625 0.96875 A 1.0001 1.0001 0 0 0 24.78125 1 A 1.0001 1.0001 0 0 0 24 2 L 24 32.5625 L 17.71875 26.28125 A 1.0001 1.0001 0 0 0 16.78125 26 A 1.0001 1.0001 0 0 0 16.28125 27.71875 L 24.28125 35.71875 L 25 36.40625 L 25.71875 35.71875 L 33.71875 27.71875 A 1.016466 1.016466 0 1 0 32.28125 26.28125 L 26 32.5625 L 26 2 A 1.0001 1.0001 0 0 0 24.90625 0.96875 z M 7 16 L 7 17 L 7 49 L 7 50 L 8 50 L 42 50 L 43 50 L 43 49 L 43 17 L 43 16 L 42 16 L 33 16 A 1.0001 1.0001 0 1 0 33 18 L 41 18 L 41 48 L 9 48 L 9 18 L 17 18 A 1.0001 1.0001 0 1 0 17 16 L 8 16 L 7 16 z" color="#000" enable-background="accumulate" font-family="Bitstream Vera Sans" overflow="visible" style="text-indent:0;text-align:start;line-height:normal;text-transform:none;block-progression:tb;-inkscape-font-specification:Bitstream Vera Sans"/></svg>