<svg xmlns="http://www.w3.org/2000/svg" xmlns:svg="http://www.w3.org/2000/svg" id="????????_1" width="48" height="48" x="0" y="0" contentScriptType="application/ecmascript" contentStyleType="text/css" enable-background="new 0 0 48 48" preserveAspectRatio="xMidYMid meet" version="1.1" viewBox="0 0 48 48" zoomAndPan="magnify" xml:space="preserve" style="fill:#06f"><metadata id="metadata9"/><path style="color:#000;line-height:normal;font-family:'Bitstream Vera Sans';-inkscape-font-specification:'Bitstream Vera Sans';text-indent:0;text-align:start;text-transform:none;block-progression:tb;overflow:visible;fill:#000;fill-opacity:1" id="path4" d="m 7.21875,4.25 0,39.5 c 6.201061,-3.646991 12.391785,-7.310212 18.591797,-10.958984 l -3.923828,0 L 9.21875,40.25 l 0,-32.5 18.732422,11.03125 1.652344,-1.367188 C 22.141846,13.026181 14.686433,8.6276174 7.21875,4.25 Z"/><path style="font-style:normal;font-weight:400;font-size:24.02693176px;line-height:125%;font-family:sans-serif;letter-spacing:0;word-spacing:0;fill:#000;fill-opacity:1;stroke:none;stroke-width:1.39999998;stroke-linecap:round;stroke-linejoin:miter;stroke-miterlimit:0;stroke-dasharray:none;stroke-opacity:1" id="path4209" d="m 32.802098,16.678154 -10.019531,8.132812 3.515625,0 7.714844,-6.414062 7.714843,6.414062 3.515625,0 -10.019531,-8.132812 -2.421875,0 z m 0,6.425781 -10.019531,8.130859 3.515625,0 7.714844,-6.412109 7.714843,6.412109 3.515625,0 -10.019531,-8.130859 -2.421875,0 z m 0,6.423828 -10.019531,8.132812 3.515625,0 7.714844,-6.412109 7.714843,6.412109 3.515625,0 -10.019531,-8.132812 -2.421875,0 z m 0,6.425781 -10.019531,8.132813 3.515625,0 7.714844,-6.414063 7.714843,6.414063 3.515625,0 -10.019531,-8.132813 -2.421875,0 z"/></svg>