<svg xmlns="http://www.w3.org/2000/svg" xmlns:svg="http://www.w3.org/2000/svg" style="fill:#000;fill-opacity:1" id="svg2" width="50" height="50" version="1.1" viewBox="0 0 50 50"><metadata id="metadata10"/><path style="text-indent:0;text-align:start;line-height:normal;text-transform:none;block-progression:tb;-inkscape-font-specification:Bitstream Vera Sans" id="path4" d="M 9.15625 6.3125 L 6.3125 9.15625 L 22.15625 25 L 6.21875 40.96875 L 9.03125 43.78125 L 25 27.84375 L 40.9375 43.78125 L 43.78125 40.9375 L 27.84375 25 L 43.6875 9.15625 L 40.84375 6.3125 L 25 22.15625 L 9.15625 6.3125 z" color="#000" enable-background="accumulate" font-family="Bitstream Vera Sans" overflow="visible"/><circle style="fill:#fff;fill-opacity:1;stroke:#000;stroke-opacity:1" id="path4138" cx="33.157" cy="33.369" r="16.352"/><g style="fill:#000;fill-opacity:1" id="g4173" transform="matrix(0.43644068,0,0,0.43644068,22.245763,22.457628)"><path id="path4165" d="m 19,0 0,6 2,2 0,-6 15,0 0,11 0,1 1,0 11,0 0,26 -15,0 0,2 17,0 L 50,12.59375 37.40625,0 19,0 Z M 38,3.40625 46.59375,12 38,12 38,3.40625 Z M 0,8 l 0,1 0,40 0,1 1,0 29,0 1,0 0,-1 0,-28 0,-0.40625 -0.28125,-0.3125 -12,-12 L 18.40625,8 18,8 1,8 0,8 Z m 2,2 15,0 0,11 0,1 1,0 11,0 0,26 L 2,48 2,10 Z M 19,11.4375 27.5625,20 19,20 19,11.4375 Z" overflow="visible" style="color:#000;line-height:normal;font-family:'Bitstream Vera Sans';-inkscape-font-specification:'Bitstream Vera Sans';text-indent:0;text-align:start;text-transform:none;block-progression:tb;overflow:visible;enable-background:accumulate"/></g></svg>