<svg xmlns="http://www.w3.org/2000/svg" xmlns:svg="http://www.w3.org/2000/svg" style="fill:#000;fill-opacity:1" id="svg2" width="50" height="50" version="1.1" viewBox="0 0 50 50"><metadata id="metadata10"/><path style="text-indent:0;text-align:start;line-height:normal;text-transform:none;block-progression:tb;-inkscape-font-specification:Bitstream Vera Sans" id="path4" d="M 9.15625 6.3125 L 6.3125 9.15625 L 22.15625 25 L 6.21875 40.96875 L 9.03125 43.78125 L 25 27.84375 L 40.9375 43.78125 L 43.78125 40.9375 L 27.84375 25 L 43.6875 9.15625 L 40.84375 6.3125 L 25 22.15625 L 9.15625 6.3125 z" color="#000" enable-background="accumulate" font-family="Bitstream Vera Sans" overflow="visible"/><circle style="fill:#fff;fill-opacity:1;stroke:none;stroke-opacity:1" id="path4138" cx="33.157" cy="33.369" r="16.352"/><g style="fill:#000;fill-opacity:1" id="g4186" transform="matrix(0.67098964,0,0,0.67098964,16.874248,16.662383)"><path id="path4178" d="m 24.665097,0.44653673 c -13.795274,0 -24.99999955,11.07964327 -24.99999955,24.72091527 0,13.641271 11.20472555,24.720914 24.99999955,24.720914 13.795274,0 25,-11.079643 25,-24.720914 0,-13.641272 -11.204726,-24.72091527 -25,-24.72091527 z m 0,1.97767317 c 12.714394,0 23,10.1707841 23,22.7432421 0,12.572457 -10.285606,22.743241 -23,22.743241 -12.714394,0 -22.9999995,-10.170784 -22.9999995,-22.743241 0,-12.572458 10.2856055,-22.7432421 22.9999995,-22.7432421 z m -9.09375,12.8239751 a 1.0001,0.98893547 0 0 0 -0.125,0.0309 1.0001,0.98893547 0 0 0 -0.5,1.699563 l 8.28125,8.188803 -8.28125,8.188802 a 1.016466,1.0051188 0 1 0 1.4375,1.421453 l 8.28125,-8.188803 8.28125,8.188803 a 1.016466,1.0051188 0 1 0 1.4375,-1.421453 l -8.28125,-8.188802 8.28125,-8.188803 a 1.0001,0.98893547 0 0 0 -0.84375,-1.699563 1.0001,0.98893547 0 0 0 -0.59375,0.27811 l -8.28125,8.188803 -8.28125,-8.188803 a 1.0001,0.98893547 0 0 0 -0.8125,-0.309011 z" overflow="visible" style="color:#000;line-height:normal;font-family:'Bitstream Vera Sans';-inkscape-font-specification:'Bitstream Vera Sans';text-indent:0;text-align:start;text-transform:none;block-progression:tb;overflow:visible;enable-background:accumulate"/></g></svg>