<svg xmlns="http://www.w3.org/2000/svg" xmlns:svg="http://www.w3.org/2000/svg" style="fill:#000" id="svg2" version="1.1" viewBox="0 0 26 26"><metadata id="metadata10"/><ellipse style="fill:#fff;fill-opacity:1;stroke:none;stroke-opacity:1" id="path4154" cx="13.026" cy="12.996" rx="8.209" ry="8.165"/><path style="color:#000;line-height:normal;font-family:'Bitstream Vera Sans';-inkscape-font-specification:'Bitstream Vera Sans';text-indent:0;text-align:start;text-transform:none;block-progression:tb;overflow:visible;fill:#000;fill-opacity:1;enable-background:accumulate" id="path4142" d="M 13 3.8476562 C 8.4183753 3.8476562 4.6259295 7.2288846 3.9609375 11.626953 L 2.1445312 11.626953 L 3.9628906 7.2070312 A 0.56278724 1.3746889 0 0 0 3.5410156 4.859375 A 0.56278724 1.3746889 0 0 0 3.1679688 5.2617188 L 0.40429688 12.029297 L 0.001953125 12.992188 L 0.40429688 13.955078 L 3.1679688 20.726562 A 0.5597247 1.3672081 0 0 0 3.6210938 21.134766 A 0.5597247 1.3672081 0 0 0 3.953125 18.78125 L 2.1445312 14.363281 L 3.9609375 14.363281 C 4.6226789 18.765373 8.4157234 22.154298 13 22.154297 C 17.585041 22.154298 21.380213 18.766447 22.041016 14.363281 L 23.869141 14.363281 L 22.074219 18.78125 A 0.55518815 1.3672081 0 0 0 22.402344 21.134766 A 0.55518815 1.3672081 0 0 0 22.853516 20.726562 L 25.59375 13.955078 L 25.994141 12.992188 L 25.59375 12.029297 L 22.853516 5.2617188 A 0.55822587 1.3746889 0 0 0 22.484375 4.859375 A 0.55822587 1.3746889 0 0 0 22.480469 4.859375 A 0.55822587 1.3746889 0 0 0 22.0625 7.2070312 L 23.869141 11.626953 L 22.039062 11.626953 C 21.37407 7.2288845 17.581624 3.8476562 13 3.8476562 z M 13 4.8261719 C 17.520003 4.8261719 21.173829 8.479996 21.173828 13 C 21.173828 17.520003 17.520003 21.173828 13 21.173828 C 8.479996 21.173828 4.8261709 17.520003 4.8261719 13 C 4.8261709 8.479996 8.479996 4.8261719 13 4.8261719 z"/><path style="fill:none;fill-opacity:1;stroke:none;stroke-opacity:1" id="path4178" d="M 24.305298,12.990434 A 13.009566,12.931664 0 0 1 11.295732,25.922098 13.009566,12.931664 0 0 1 -1.7138348,12.990434 13.009566,12.931664 0 0 1 11.295732,0.05876923 13.009566,12.931664 0 0 1 24.305298,12.990434 Z"/><path id="path5311" d="m 12.529695,6.8860467 0,0.9406102 0.470304,0 0,-0.9406101 -0.470304,0 z m -1.014094,0.2057575 -0.396816,0.1028795 -0.01468,0.014706 -0.01472,0 -0.396819,0.1469703 -0.01472,0 -0.01472,0.014706 -0.0441,0.014706 0.39682,0.8524252 0.01472,0 0.02939,-0.014706 0.323336,-0.1175693 0.02939,-0.014689 0.367426,-0.1028804 -0.264548,-0.8965177 z m 3.365615,0.2645487 0,0.4703039 0,3.2921282 0.94061,0 0,-2.454401 c 1.424767,0.9312842 2.351519,2.482883 2.351519,4.335616 0,2.847477 -2.325867,5.173345 -5.173346,5.173345 -2.847477,0 -5.173344,-2.325868 -5.173344,-5.173345 l 0,-0.470305 -0.9406085,0 0,0.470305 c 0,3.360536 2.7534164,6.113953 6.1139525,6.113953 3.360538,0 6.113954,-2.753417 6.113954,-6.113953 0,-1.908956 -0.844267,-3.5811314 -2.189854,-4.7030393 l 1.719551,0 0,-0.9406077 -3.292128,0 -0.470306,0 z m -5.0998598,0.4703039 -0.24985,0.1616651 -0.014682,0.014706 -0.014706,0 -0.3233343,0.2498498 -0.014682,0.014689 -0.014715,0 -0.1322738,0.1175707 0.6172742,0.7054558 0.1028796,-0.088172 0.029396,-0.014706 0.2645451,-0.2057598 0.0294,-0.014706 L 10.28106,8.6202801 9.7813644,7.826642 Z M 8.3410495,9.046507 8.2381699,9.1787808 l -0.014706,0.014706 -0.014706,0.014706 -0.2498499,0.3233333 0,0.01471 -0.014706,0.01471 -0.1616668,0.24985 0.7936381,0.5143957 0.1322732,-0.220456 0.029396,-0.02939 0.2057576,-0.2792447 0.014715,-0.01471 L 9.0611946,9.6638233 8.34104,9.0465473 Z m -0.9993973,1.601972 -0.014706,0.0588 -0.014706,0.01471 0,0.01472 -0.1469695,0.382123 0,0.01468 -0.014706,0.02939 -0.1028804,0.396819 0.8965177,0.249849 0.1028795,-0.367425 0.014706,-0.02939 0.1175686,-0.323333 0.014706,-0.02939 0,-0.01472 -0.852426,-0.39682 z" style="line-height:normal;-inkscape-font-specification:'Bitstream Vera Sans';text-indent:0;text-align:start;text-transform:none;block-progression:tb;fill:#000;stroke:none;fill-opacity:1"/></svg>