<svg xmlns="http://www.w3.org/2000/svg" xmlns:svg="http://www.w3.org/2000/svg" style="fill:#000" id="svg2" width="38" height="47" enable-background="new 0 0 50 50" version="1.1" viewBox="0 0 38 47"><metadata id="metadata10"/><path style="color:#000;line-height:normal;font-family:'Bitstream Vera Sans';-inkscape-font-specification:'Bitstream Vera Sans';text-indent:0;text-align:start;text-transform:none;block-progression:tb;overflow:visible;fill:#000;fill-opacity:.36263737;enable-background:accumulate" id="path4" d="M 19,0 C 12.364481,0 7,5.3644809 7,12 l 0,5 -4,0 c -1.7,0 -3,1.3 -3,3 l 0,24 c 0,1.7 1.3,3 3,3 l 32,0 c 1.7,0 3,-1.3 3,-3 l 0,-24 c 0,-1.7 -1.3,-3 -3,-3 l -4,0 0,-5 C 31,5.3644809 25.635519,0 19,0 Z m 0,2 c 5.564481,0 10,4.4355191 10,10 l 0,5 -20,0 0,-5 C 9,6.4355191 13.435519,2 19,2 Z m 0,25 c 1.7,0 3,1.3 3,3 0,0.9 -0.4,1.6875 -1,2.1875 L 21,35 c 0,1.1 -0.9,2 -2,2 -1.1,0 -2,-0.9 -2,-2 l 0,-2.8125 C 16.4,31.6875 16,30.9 16,30 c 0,-1.7 1.3,-3 3,-3 z" overflow="visible"/></svg>